<?xml version="1.0" standalone="no"?>
<!DOCTYPE svg PUBLIC "-//W3C//DTD SVG 1.1//EN" "http://www.w3.org/Graphics/SVG/1.1/DTD/svg11.dtd" >
<svg xmlns="http://www.w3.org/2000/svg">
<metadata></metadata>
<defs>
<font id="GeoSlb712MediumCBTMediumCBT" horiz-adv-x="495" >
<font-face units-per-em="1000" ascent="800" descent="-200" />
<missing-glyph horiz-adv-x="233" />
<glyph horiz-adv-x="0" />
<glyph horiz-adv-x="1000" />
<glyph unicode=" "  horiz-adv-x="233" />
<glyph unicode="&#x09;" horiz-adv-x="233" />
<glyph unicode="&#xa0;" horiz-adv-x="233" />
<glyph unicode="!" horiz-adv-x="275" d="M82 0v123h111v-123h-111zM91 475v219h93v-219l-21 -288h-51z" />
<glyph unicode="&#x22;" horiz-adv-x="300" d="M44 430v271h68v-271h-68zM188 430v271h68v-271h-68z" />
<glyph unicode="#" horiz-adv-x="769" d="M43 219l26 71h151l45 129h-161l25 71h162l79 222h81l-79 -222h125l80 222h80l-78 -222h147l-25 -71h-148l-45 -129h157l-25 -71h-157l-79 -221h-81l79 221h-126l-79 -221h-81l78 221h-151zM301 290h127l45 129h-127z" />
<glyph unicode="$" d="M28 518q0 80 50.5 128.5t139.5 50.5v74h53v-78q48 -11 87 -48v46h72v-181h-73v50q-31 44 -86 63v-220l49 -15q70 -21 107.5 -71t37.5 -123q0 -88 -51.5 -141.5t-142.5 -57.5v-82h-53v86q-56 10 -105 53v-43h-79v210h79v-63q41 -59 105 -79v249l-54 18q-136 45 -136 174z M110 527q0 -44 24.5 -69t83.5 -43v215q-52 -4 -80 -31t-28 -72zM271 73q112 14 112 117q0 98 -112 129v-246z" />
<glyph unicode="%" horiz-adv-x="713" d="M26 505q0 99 39.5 150t96.5 51t96 -50.5t39 -150.5t-39 -151t-96 -51q-58 0 -97 51t-39 151zM97 505q0 -41 7 -71t18 -43.5t20.5 -19t18.5 -5.5q26 0 45.5 34t19.5 105t-19 104.5t-46 33.5q-10 0 -20 -5.5t-20.5 -19.5t-17 -43t-6.5 -70zM110 -14l424 720h68l-424 -720 h-68zM415 187q0 100 39 151t96 51t96 -51t39 -151t-39 -150.5t-96 -50.5t-96 51t-39 150zM485 187q0 -71 19.5 -104.5t45.5 -33.5t45.5 34t19.5 104q0 71 -19.5 105t-45.5 34q-27 0 -46 -34t-19 -105z" />
<glyph unicode="&#x26;" horiz-adv-x="708" d="M45 213q0 150 153 220q-37 79 -37 123q0 66 43 108t114 42q76 0 118.5 -40t42.5 -108q0 -56 -35.5 -94.5t-111.5 -65.5l139 -187q39 77 56 161h140v-87h-76q-20 -72 -65 -147l42 -55h99v-83h-153l-47 63q-44 -41 -88 -59t-100 -18q-101 0 -167.5 64.5t-66.5 162.5z M144 227q0 -62 44 -107t106 -45q63 0 124 55l-172 232q-49 -18 -75.5 -53.5t-26.5 -81.5zM247 562q0 -38 36 -97q58 17 84 39.5t26 57.5q0 31 -20.5 50.5t-54.5 19.5q-32 0 -51.5 -19t-19.5 -51z" />
<glyph unicode="'" horiz-adv-x="155" d="M44 430v271h68v-271h-68z" />
<glyph unicode="(" horiz-adv-x="375" d="M103 275q0 168 67.5 280t188.5 151v-64q-160 -88 -160 -367q0 -143 38.5 -232.5t121.5 -134.5v-65q-122 39 -189 151.5t-67 280.5z" />
<glyph unicode=")" horiz-adv-x="375" d="M19 -93q160 88 160 367q0 143 -38.5 233t-121.5 135v64q122 -39 189 -151t67 -280t-67.5 -280.5t-188.5 -151.5v64z" />
<glyph unicode="*" horiz-adv-x="449" d="M58 560l23 68l115 -46l-8 124h72l-8 -124l116 46l22 -68l-121 -31l80 -96l-58 -42l-67 105l-66 -105l-58 42l79 96z" />
<glyph unicode="+" horiz-adv-x="833" d="M124 264v68h258v264h69v-264h258v-68h-258v-264h-69v264h-258z" />
<glyph unicode="," horiz-adv-x="248" d="M60 -84q30 4 44 23q11 15 11 46v15h-53v123h113v-123q0 -85 -49 -119q-25 -19 -66 -20v55z" />
<glyph unicode="-" horiz-adv-x="326" d="M42 206v86h243v-86h-243z" />
<glyph unicode="." horiz-adv-x="248" d="M66 0v123h116v-123h-116z" />
<glyph unicode="/" horiz-adv-x="306" d="M-5 -93l269 799h62l-269 -799h-62z" />
<glyph unicode="0" d="M34 346q0 173 56.5 266.5t156.5 93.5q102 0 158.5 -95t56.5 -275q0 -166 -58.5 -258t-156.5 -92q-100 0 -156.5 93.5t-56.5 266.5zM128 351q0 -136 32.5 -209t87.5 -73q53 0 86 71t33 200q0 143 -31.5 217.5t-87.5 74.5q-55 0 -87.5 -72.5t-32.5 -208.5z" />
<glyph unicode="1" d="M115 0v86h90v523h-90v85h183v-608h86v-86h-269z" />
<glyph unicode="2" d="M24 0v9q0 150 95 245q32 32 89 75t64 49q37 32 53.5 62t16.5 74q0 52 -28.5 82.5t-74.5 30.5q-59 0 -86.5 -46.5t-28.5 -143.5h-87q-1 10 -1 28q0 115 56.5 178t156.5 63q86 0 139 -53t53 -140q0 -77 -46 -134q-24 -29 -52 -53t-65.5 -49.5t-49.5 -35.5 q-99 -80 -105 -155h236v159h86v-245h-421z" />
<glyph unicode="3" d="M28 223v8h89v-3q0 -79 33.5 -122.5t90.5 -43.5q53 0 87.5 36t34.5 93q0 135 -159 135q-4 0 -11.5 -0.5t-11.5 -0.5v81h16q71 0 108.5 30.5t37.5 86.5q0 49 -28 78t-75 29q-107 0 -107 -143v-4h-86v17q0 96 51.5 151t139.5 55q91 0 144.5 -50t53.5 -130q0 -112 -108 -156 q66 -24 96.5 -66.5t30.5 -109.5q0 -94 -59.5 -151t-158.5 -57q-97 0 -153 62.5t-56 174.5z" />
<glyph unicode="4" d="M14 274l272 432h86v-432h98v-77h-98v-111h67v-86h-228v86h78v111h-238q-6 47 -37 77zM97 274h192l4 316z" />
<glyph unicode="5" d="M25 213v14h91v-4q0 -73 29.5 -112.5t83.5 -39.5q57 0 91.5 41.5t34.5 113.5q0 68 -32.5 105.5t-90.5 37.5q-80 0 -118 -79l-66 52l37 352h330v-187h-81v102h-187l-20 -199q60 44 126 44q90 0 143.5 -60.5t53.5 -163.5q0 -110 -60.5 -177t-160.5 -67q-96 0 -150 59.5 t-54 167.5z" />
<glyph unicode="6" d="M35 328q0 185 61 281.5t172 96.5q86 0 136 -49.5t50 -135.5v-16h-82q0 127 -105 127q-66 0 -101.5 -63t-35.5 -184v-10q75 67 151 67q81 0 131.5 -61t50.5 -165t-58.5 -167t-150.5 -63q-106 0 -162.5 87t-56.5 255zM129 256q0 -89 35 -138.5t95 -49.5q52 0 86 40t34 107 q0 69 -31.5 108.5t-85.5 39.5q-68 0 -132 -72q-1 -12 -1 -35z" />
<glyph unicode="7" d="M42 504v190h421v-70q-184 -288 -184 -527v-11h74v-86h-254v86h81q4 131 48.5 254t132.5 269h-240v-105h-79z" />
<glyph unicode="8" d="M28 186q0 138 117 181q-48 19 -75 60.5t-27 97.5q0 79 57 130t148 51t148 -51t57 -130q0 -56 -27 -97.5t-75 -60.5q117 -43 117 -181q0 -87 -61.5 -143.5t-158.5 -56.5t-158.5 56.5t-61.5 143.5zM123 198q0 -52 36 -89t88 -37q53 0 89 37t36 89t-36 88.5t-89 36.5 q-52 0 -88 -36.5t-36 -88.5zM134 520q0 -46 32.5 -79t80.5 -33t81 32.5t33 79.5t-33 79.5t-81 32.5t-80.5 -33t-32.5 -79z" />
<glyph unicode="9" d="M29 476q0 104 58.5 167t150.5 63q107 0 163 -86.5t56 -254.5q0 -188 -61 -283.5t-180 -95.5q-82 0 -130 50t-48 137v14h82q0 -127 105 -127q66 0 101.5 63t35.5 184v10q-74 -66 -151 -66q-81 0 -131.5 61t-50.5 164zM113 478q0 -69 32 -109t86 -40q67 0 132 73q1 12 1 35 q0 89 -35 138.5t-95 49.5q-52 0 -86.5 -40t-34.5 -107z" />
<glyph unicode=":" horiz-adv-x="271" d="M77 0v123h116v-123h-116zM77 366v122h116v-122h-116z" />
<glyph unicode=";" horiz-adv-x="271" d="M76 -84q31 7 43 22t12 47v15h-53v123h113v-123q0 -132 -115 -139v55zM76 366v122h116v-122h-116z" />
<glyph unicode="&#x3c;" horiz-adv-x="833" d="M129 267v63l575 236v-75l-473 -193l473 -192v-75z" />
<glyph unicode="=" horiz-adv-x="833" d="M124 167v68h585v-68h-585zM124 361v68h585v-68h-585z" />
<glyph unicode="&#x3e;" horiz-adv-x="833" d="M129 31v75l474 192l-474 193v75l575 -236v-63z" />
<glyph unicode="?" horiz-adv-x="468" d="M23 493v12q0 93 54.5 147t146.5 54q89 0 145.5 -53t56.5 -130q0 -82 -49.5 -133t-139.5 -61l-9 -132h-54l-12 215q20 -6 35 -6q64 0 99 31t35 85q0 46 -30 76.5t-79 30.5q-51 0 -80.5 -33t-29.5 -92v-11h-89zM146 0v123h111v-123h-111z" />
<glyph unicode="@" horiz-adv-x="1000" d="M52 255q0 164 99 284q145 177 394 177q166 0 275 -84q129 -100 129 -251q0 -174 -121 -269q-69 -55 -154 -55q-98 0 -98 77v9q-53 -85 -147 -85q-74 0 -113.5 41.5t-39.5 120.5q0 115 67.5 192.5t165.5 77.5q83 0 118 -73l28 56h64l-71 -281q-4 -16 -4 -29q0 -46 49 -46 t102 50q83 78 83 205q0 126 -92.5 205t-244.5 79q-129 0 -223 -56q-93 -56 -144.5 -146.5t-51.5 -199.5q0 -168 124 -263q102 -78 256 -78q170 0 303 93l27 -40q-145 -109 -324 -109q-187 0 -307 91q-149 115 -149 307zM354 218q0 -52 23.5 -79.5t67.5 -27.5q47 0 85 33.5 t51 87.5l29 115q-8 43 -33.5 66.5t-63.5 23.5q-67 0 -113 -63.5t-46 -155.5z" />
<glyph unicode="A" horiz-adv-x="632" d="M-28 0v90h80l181 519h-90v85h347v-85h-85l179 -519h75v-90h-260v90h84l-54 156h-234l-53 -156h78v-90h-248zM225 330h174l-86 258z" />
<glyph unicode="B" horiz-adv-x="598" d="M20 0v90h82v519h-82v85h279q21 0 41 -1.5t54 -11.5t58 -27.5t42.5 -53t18.5 -83.5q0 -108 -104 -148q62 -16 102 -60t40 -113q0 -45 -14 -80.5t-38.5 -55.5t-49 -33.5t-55.5 -18.5t-47.5 -6.5t-34.5 -1.5h-292zM201 87h97q70 0 110 31t40 86q0 40 -20 66t-52 36t-52.5 13 t-40.5 3h-82v-235zM201 403h73q140 0 140 100q0 35 -16 59t-41.5 33t-42.5 11.5t-34 2.5h-79v-206z" />
<glyph unicode="C" horiz-adv-x="752" d="M34 346q0 67 21.5 130t62.5 115t109.5 83.5t154.5 31.5q149 0 224 -101v89h85v-223h-92q-19 48 -50.5 80t-66.5 44t-54.5 15.5t-38.5 3.5q-110 0 -179 -73t-69 -194q0 -128 72.5 -198t167.5 -70q85 0 152.5 56t94.5 145l86 -51q-33 -113 -122.5 -178t-209.5 -65 q-153 0 -250.5 101t-97.5 259z" />
<glyph unicode="D" horiz-adv-x="715" d="M17 0v88h85v518h-85v88h321q162 0 252.5 -92.5t90.5 -254.5t-90.5 -254.5t-252.5 -92.5h-321zM201 88h128q16 0 31 1t41 7t47 15.5t45 29.5t40 46.5t27 68.5t11 94q0 15 -1 30t-6 42t-13.5 50t-26 48.5t-40.5 43.5t-60 30t-82 12h-141v-518z" />
<glyph unicode="E" horiz-adv-x="635" d="M20 0v90h82v519h-82v85h567v-206h-84v121h-302v-211h270v-83h-270v-225h302v132h84v-222h-567z" />
<glyph unicode="F" horiz-adv-x="565" d="M20 0v90h82v519h-82v85h527v-206h-83v121h-263v-211h232v-83h-232v-225h91v-90h-272z" />
<glyph unicode="G" horiz-adv-x="762" d="M35 346q0 161 98.5 260.5t251.5 99.5q150 0 225 -101v89h84v-223h-91q-19 48 -50.5 80t-66.5 44t-55 15.5t-39 3.5q-111 0 -181 -73t-70 -194q0 -123 71 -195.5t189 -72.5q91 0 148 46t66 125h-127v86h238l1 -29v-14q0 -132 -93 -217q-98 -90 -249 -90q-155 0 -252.5 100 t-97.5 260z" />
<glyph unicode="H" horiz-adv-x="704" d="M20 0v90h82v519h-82v85h267v-85h-86v-196h301v196h-85v85h267v-85h-82v-519h82v-90h-267v90h85v240h-301v-240h86v-90h-267z" />
<glyph unicode="I" horiz-adv-x="303" d="M20 0v90h82v519h-82v85h264v-85h-83v-519h83v-90h-264z" />
<glyph unicode="J" horiz-adv-x="301" d="M-32 -64q2 3 5.5 1t16 -5.5t24.5 -3.5q16 0 29 2.5t22 9.5t16 13t10.5 18.5t6 19.5t3.5 23.5t1.5 23.5t0 25.5t-0.5 23.5v522h-82v85h264v-85h-83v-561q0 -56 -11.5 -96.5t-27 -61.5t-41.5 -33t-44 -15t-46 -4h-21q-27 2 -42 6v92z" />
<glyph unicode="K" horiz-adv-x="604" d="M20 0v90h82v519h-82v85h264v-85h-83v-519h83v-90h-264zM201 369l236 240h-76v85h259v-85h-71l-225 -235l228 -284h82v-90h-272v90h69z" />
<glyph unicode="L" horiz-adv-x="590" d="M20 0v90h82v519h-82v85h264v-85h-83v-519h250v235h84v-325h-515z" />
<glyph unicode="M" horiz-adv-x="910" d="M20 0v90h84v519h-84v85h245l191 -493l196 493h238v-85h-85v-519h85v-90h-272v90h84v520l-248 -610h-20l-242 618v-528h99v-90h-271z" />
<glyph unicode="N" horiz-adv-x="744" d="M17 0v90h85v519h-85v85h221l314 -541v456h-85v85h274v-85h-100v-609h-113l-337 582v-492h85v-90h-259z" />
<glyph unicode="O" horiz-adv-x="764" d="M34 346q0 154 97 257t251 103q153 0 250 -101t97 -259t-97 -259t-250 -101t-250.5 101t-97.5 259zM141 347q0 -117 67 -192.5t173 -75.5t173.5 76t67.5 192q0 114 -66.5 190t-174.5 76q-105 0 -172.5 -75.5t-67.5 -190.5z" />
<glyph unicode="P" horiz-adv-x="601" d="M20 0v90h82v519h-82v85h279q67 0 116.5 -13t77.5 -33t45 -49.5t22 -56.5t5 -60q0 -56 -17.5 -97t-43.5 -63.5t-64 -35.5t-70 -16.5t-71 -3.5h-98v-176h83v-90h-264zM201 349h83q101 0 138 33t37 97t-37 97t-138 33h-83v-260z" />
<glyph unicode="Q" horiz-adv-x="764" d="M34 346q0 153 97 256.5t251 103.5t250.5 -101t96.5 -259q0 -136 -76 -234t-207 -120q87 -29 129 -29q22 0 40 5l-28 -89q-1 0 -4 -1.5t-6 -2.5t-5 -1h-9q-31 3 -44.5 4.5t-39 9.5t-62.5 23q-58 25 -84 25q-38 0 -75 -27l-34 49q27 30 66 39q-119 30 -187.5 125.5 t-68.5 223.5zM141 347q0 -117 67 -192.5t173 -75.5t173.5 76t67.5 192q0 114 -66.5 190t-174.5 76q-105 0 -172.5 -75.5t-67.5 -190.5z" />
<glyph unicode="R" horiz-adv-x="597" d="M20 0v90h82v519h-82v85h297q22 0 43 -1.5t56.5 -11.5t61 -27.5t45 -53t19.5 -83.5q0 -67 -36.5 -114t-99.5 -60l118 -253h77v-90h-139l-157 334h-104v-244h83v-90h-264zM201 410h79q31 0 54 3t49.5 12t40.5 30t14 53q0 30 -12.5 51.5t-27.5 31.5t-40.5 15.5t-37.5 6 t-33 0.5h-86v-203z" />
<glyph unicode="S" horiz-adv-x="549" d="M50 518q0 82 54.5 135t137.5 53q89 0 152 -58v46h81v-199h-82v51q-60 75 -142 75q-43 0 -73.5 -23.5t-30.5 -70.5q0 -31 15.5 -52.5t31 -29.5t40.5 -17l120 -42q151 -52 151 -197q0 -91 -57.5 -147t-155.5 -56q-89 0 -153 58v-44h-88v238h88v-62q22 -44 61.5 -72.5 t90.5 -28.5q56 0 85 32.5t29 76.5q0 84 -90 116l-123 41q-142 48 -142 177z" />
<glyph unicode="T" horiz-adv-x="616" d="M37 425v269h541v-269h-83v184h-138v-519h84v-90h-266v90h83v519h-137v-184h-84z" />
<glyph unicode="U" horiz-adv-x="721" d="M12 609v85h272v-85h-84v-371q0 -161 147 -161q151 0 151 161v371h-85v85h265v-85h-84v-322v-38.5t-2.5 -41t-6.5 -45t-12.5 -43.5t-20.5 -42.5t-31.5 -35.5t-43.5 -29.5t-57.5 -18t-74.5 -7.5q-40 0 -74 7.5t-58 18t-43 29.5t-31 35.5t-20.5 42.5t-12.5 43.5t-6.5 45 t-2.5 41v38.5v322h-85z" />
<glyph unicode="V" horiz-adv-x="620" d="M-34 609v85h257v-85h-73l164 -477l164 477h-81v85h257v-85h-87l-209 -609h-104l-208 609h-80z" />
<glyph unicode="W" horiz-adv-x="903" d="M-18 609v85h257v-85h-87l120 -465l113 465h-87v85h313v-85h-86l120 -465l113 465h-87v85h254v-85h-87l-151 -609h-92l-147 550l-135 -550h-92l-165 609h-74z" />
<glyph unicode="X" horiz-adv-x="600" d="M-14 0v90h80l178 257l-172 262h-86v85h265v-85h-58l111 -172l114 172h-79v85h255v-85h-75l-164 -249l179 -270h83v-90h-278v90h75l-119 181l-120 -181h76v-90h-265z" />
<glyph unicode="Y" horiz-adv-x="542" d="M-55 609v85h276v-85h-75l131 -206l135 206h-87v85h271v-85h-85l-192 -291v-228h90v-90h-281v90h91v228l-190 291h-84z" />
<glyph unicode="Z" horiz-adv-x="544" d="M21 0v88l353 521h-250v-121h-83v206h456v-85l-354 -521h285v130h84v-218h-491z" />
<glyph unicode="[" horiz-adv-x="375" d="M130 -146v840h231v-69h-139v-701h139v-70h-231z" />
<glyph unicode="\" horiz-adv-x="306" d="M-5 706h62l269 -799h-62z" />
<glyph unicode="]" horiz-adv-x="375" d="M14 -76h139v701h-139v69h231v-840h-231v70z" />
<glyph unicode="^" horiz-adv-x="1000" d="M205 440l249 272h91l249 -272h-88l-206 205l-207 -205h-88z" />
<glyph unicode="_" horiz-adv-x="500" d="M0 -166h500v-70h-500v70z" />
<glyph unicode="`" horiz-adv-x="500" d="M122 724h98l100 -170h-59z" />
<glyph unicode="a" horiz-adv-x="513" d="M29 141q0 72 48 116t125 44q57 0 139 -35v29q0 128 -103 128q-75 0 -118 -63l-85 22q49 118 213 118q27 0 48.5 -3t47.5 -15t43.5 -31.5t29.5 -56t12 -86.5v-222h74v-86h-159v46q-69 -60 -153 -60q-74 0 -118 43t-44 112zM125 144q0 -26 21 -47t59 -21q63 0 139 60v36 q-71 44 -125 44q-45 0 -69.5 -21.5t-24.5 -50.5z" />
<glyph unicode="b" horiz-adv-x="590" d="M15 0v86h70v527h-70v81h156v-279q73 73 166 73q90 0 155 -65t65 -186t-65 -186t-155 -65q-93 0 -163 72v-58h-159zM174 239q0 -74 39.5 -120t104.5 -46q66 0 105 45t39 121q0 77 -39 121.5t-105 44.5t-105 -44t-39 -122z" />
<glyph unicode="c" horiz-adv-x="535" d="M32 243q0 111 65 184t171 73q82 0 144 -55v43h78v-182h-78q-10 52 -46 80.5t-84 28.5q-63 0 -107 -42t-44 -129q0 -85 44.5 -126.5t105.5 -41.5q48 0 89.5 26t64.5 72l77 -38q-30 -72 -91.5 -111t-139.5 -39q-111 0 -180 70.5t-69 186.5z" />
<glyph unicode="d" horiz-adv-x="590" d="M34 237q0 121 64.5 186t154.5 65q97 0 166 -73v198h-70v81h156v-608h70v-86h-159v58q-70 -72 -163 -72q-90 0 -154.5 65t-64.5 186zM128 239q0 -84 42.5 -125t102.5 -41q65 0 104 46t39 120q0 78 -39 122t-104 44q-66 0 -105.5 -44.5t-39.5 -121.5z" />
<glyph unicode="e" horiz-adv-x="547" d="M32 243q0 116 68 186.5t176 70.5q118 0 182 -84q56 -74 56 -170q0 -14 -1 -28h-383q1 -63 43.5 -102.5t109.5 -39.5q100 0 155 86l77 -40q-35 -66 -96 -101t-137 -35q-113 0 -181.5 70t-68.5 187zM138 290h277q-4 61 -42.5 95t-96.5 34q-59 0 -97 -34.5t-41 -94.5z" />
<glyph unicode="f" horiz-adv-x="271" d="M13 0v86h74v321h-74v81h74v52q0 32 3.5 55.5t14 51.5t36 43.5t64.5 15.5q51 0 85.5 -31.5t35.5 -86.5l-79 -11q-5 51 -38 51q-18 0 -26 -17.5t-8 -72.5v-50h81v-81h-81v-321h81v-86h-243z" />
<glyph unicode="g" horiz-adv-x="590" d="M32 243q0 112 60.5 178.5t159.5 66.5q94 0 166 -71v71h156v-81h-70v-320q0 -59 -5 -92t-21 -64q-58 -105 -201 -105q-112 0 -192 61l55 64q58 -50 139 -50q38 0 65.5 12.5t40.5 28.5t20.5 39.5t8.5 36t1 27.5v31q-60 -79 -163 -79q-40 0 -77.5 14t-70.5 42t-52.5 77 t-19.5 113zM127 242q0 -82 42.5 -122t102.5 -40q64 0 103.5 45t39.5 117q0 76 -39 119.5t-104 43.5q-66 0 -105.5 -43.5t-39.5 -119.5z" />
<glyph unicode="h" horiz-adv-x="539" d="M16 0v86h70v527h-70v81h158v-278q80 72 164 72q32 0 55 -10.5t35 -25t18.5 -40t8 -46t1.5 -52.5v-228h72v-86h-160v278q0 6 0.5 24t0 26.5t-1.5 24t-5.5 23.5t-11 17t-18 13t-26.5 4q-34 0 -70.5 -23t-61.5 -52v-249h71v-86h-229z" />
<glyph unicode="i" horiz-adv-x="262" d="M19 0v86h69v321h-69v81h157v-402h72v-86h-229zM68 637q0 24 16.5 40.5t40.5 16.5t41 -16.5t17 -40.5q0 -22 -15.5 -40t-42.5 -18q-28 0 -42.5 18t-14.5 40z" />
<glyph unicode="j" horiz-adv-x="248" d="M-24 -91l6 -1l24 -1h8q42 0 56 20q14 22 14 63v417h-69v81h157v-504q0 -69 -25 -105q-41 -53 -115 -53q-33 0 -56 5v78zM64 637q0 24 16.5 40.5t41.5 16.5q24 0 40.5 -16.5t16.5 -40.5q0 -25 -16.5 -41.5t-40.5 -16.5q-25 0 -41.5 16.5t-16.5 41.5z" />
<glyph unicode="k" horiz-adv-x="523" d="M16 0v86h70v527h-70v81h158v-608h71v-86h-229zM177 256l179 151h-64v81h224v-81h-57l-171 -144l167 -177h70v-86h-111z" />
<glyph unicode="l" horiz-adv-x="262" d="M16 0v86h70v527h-70v81h158v-608h71v-86h-229z" />
<glyph unicode="m" horiz-adv-x="826" d="M17 0v86h71v321h-71v81h157v-75q87 75 168 75q92 0 112 -78q87 78 172 78q34 0 57.5 -12t35 -26.5t17.5 -42.5t7 -45t1 -48v-228h71v-86h-162v323q0 87 -61 87q-35 0 -70.5 -22.5t-60.5 -52.5v-249h71v-86h-162v322q0 88 -62 88q-34 0 -69 -22.5t-61 -52.5v-249h71v-86 h-232z" />
<glyph unicode="n" horiz-adv-x="542" d="M19 0v86h69v321h-69v81h153v-75q82 76 169 76q32 0 55 -10.5t35 -25t18 -40.5t7.5 -46.5t1.5 -52.5v-228h72v-86h-160v278q0 81 -10 103q-13 29 -52 29q-34 0 -70.5 -23t-61.5 -52v-249h72v-86h-229z" />
<glyph unicode="o" horiz-adv-x="553" d="M32 243q0 115 68.5 186t175.5 71q108 0 176.5 -70.5t68.5 -186.5t-68.5 -186.5t-176.5 -70.5q-107 0 -175.5 71t-68.5 186zM129 244q0 -86 43.5 -127t103.5 -41q61 0 104 41t43 127q0 79 -39.5 123.5t-107.5 44.5q-61 0 -104 -41t-43 -127z" />
<glyph unicode="p" horiz-adv-x="590" d="M15 -77h70v484h-70v81h156v-73q75 73 166 73q90 0 154.5 -65t64.5 -186t-64.5 -186t-154.5 -65q-93 0 -163 72v-135h93v-85h-252v85zM174 239q0 -74 39 -120t104 -46q60 0 102.5 41t42.5 125q0 77 -39.5 121.5t-105.5 44.5q-65 0 -104 -44t-39 -122z" />
<glyph unicode="q" horiz-adv-x="590" d="M34 237q0 122 64.5 187t154.5 65q94 0 166 -74v73h156v-81h-70v-484h70v-85h-252v85h93v135q-70 -72 -163 -72q-90 0 -154.5 65t-64.5 186zM128 239q0 -84 42.5 -125t102.5 -41q65 0 104 46t39 120q0 78 -39 122t-104 44q-66 0 -105.5 -44.5t-39.5 -121.5z" />
<glyph unicode="r" horiz-adv-x="360" d="M19 0v86h69v321h-69v81h153v-96q39 105 155 105h2h4q5 0 13 -0.5t18 -0.5v-94h-3l-34 2h-10q-33 0 -59 -11q-30 -13 -45 -33t-24 -49t-11 -50t-2 -46v-129h87v-86h-244z" />
<glyph unicode="s" horiz-adv-x="466" d="M39 349q0 68 49 109.5t122 41.5q75 0 129 -49v37h75v-159h-75q-5 46 -38.5 71.5t-84.5 25.5q-43 0 -64.5 -18.5t-21.5 -44.5q0 -27 20.5 -41t58.5 -22l83 -17q138 -27 138 -139q0 -71 -49 -114.5t-130 -43.5q-80 0 -132 47v-33h-78v165h78q6 -48 39.5 -75t85.5 -27 q48 0 72.5 20t24.5 47q0 29 -24.5 43.5t-64.5 23.5l-75 17q-138 30 -138 135z" />
<glyph unicode="t" horiz-adv-x="273" d="M14 407v81h64v65l88 73v-138h91v-81h-91v-272q0 -28 6 -42.5t13 -17t20 -2.5q22 0 52 14v-85q-41 -16 -77 -16t-58 10t-31 32.5t-11 40t-2 51.5v287h-64z" />
<glyph unicode="u" horiz-adv-x="539" d="M11 407v81h160v-302v-9q0 -22 0.5 -33.5t3.5 -29t9.5 -26.5t19 -16t30.5 -7q34 0 70.5 23t61.5 52v267h-75v81h162v-402h70v-86h-154v62q-84 -76 -168 -76q-33 0 -55.5 10.5t-34.5 25t-18.5 40.5t-8 46.5t-1.5 52.5v246h-72z" />
<glyph unicode="v" horiz-adv-x="486" d="M-19 407v81h219v-81h-54l99 -277l107 277h-68v81h216v-81h-68l-156 -407h-76l-148 407h-71z" />
<glyph unicode="w" horiz-adv-x="752" d="M-1 407v81h189v-81h-43l83 -272l89 272h-52v81h221v-81h-43l83 -272l89 272h-52v81h185v-81h-49l-148 -407h-70l-110 354l-118 -354h-69l-132 407h-53z" />
<glyph unicode="x" horiz-adv-x="505" d="M2 0v86h67l131 156l-148 165h-40v81h204v-79h-56l95 -106l89 106h-62v79h192v-81h-42l-128 -155l149 -166h43v-86h-204v84h54l-97 108l-91 -108h59v-84h-215z" />
<glyph unicode="y" horiz-adv-x="491" d="M-5 407v81h205v-81h-56l108 -272l105 272h-57v81h195v-81h-57l-219 -569h-166v81h116l37 96l-156 392h-55z" />
<glyph unicode="z" horiz-adv-x="478" d="M26 0v95l300 318h-199v-105h-81v180h386v-93l-299 -315h213v103h86v-183h-406z" />
<glyph unicode="{" horiz-adv-x="500" d="M82 223v73q4 0 11.5 -0.5t10.5 -0.5q64 0 90 29.5t26 101.5v120q0 64 9 97.5t40 52.5q41 25 136 25h18v-73h-20q-61 0 -80 -23t-19 -89v-118q0 -73 -20 -108.5t-78 -50.5q59 -15 78.5 -50t19.5 -109v-118q0 -66 19 -89t81 -23h19v-72h-21q-95 0 -133 24q-31 19 -40 52.5 t-9 97.5v120q0 72 -26 102t-91 30q-3 0 -10 -0.5t-11 -0.5z" />
<glyph unicode="|" horiz-adv-x="500" d="M214 -236v1000h73v-1000h-73z" />
<glyph unicode="}" horiz-adv-x="500" d="M78 -130h19q61 0 80.5 23.5t19.5 89.5v117q0 73 20 108.5t78 50.5q-58 15 -78 50.5t-20 108.5v118q0 66 -19.5 89t-80.5 23h-19v73h18q96 0 136 -25q31 -19 40 -52.5t9 -97.5v-120q0 -72 26 -101.5t90 -29.5q3 0 10.5 0.5t11.5 0.5v-73q-4 0 -11 0.5t-10 0.5 q-65 0 -91 -30t-26 -102v-120q0 -64 -9 -97.5t-40 -52.5q-38 -24 -133 -24h-21v72z" />
<glyph unicode="~" horiz-adv-x="833" d="M87 220v76q103 70 189 70q58 0 142 -30q6 -2 27.5 -10t30.5 -10.5t25.5 -7.5t30 -6.5t26.5 -1.5q82 0 189 76v-76q-99 -69 -190 -69q-12 0 -25.5 1.5t-22.5 3t-25.5 6.5t-21 6.5t-24.5 8.5t-22 8q-94 32 -141 32q-79 0 -188 -77z" />
<glyph unicode="&#xa3;" d="M7 88q0 42 28 68.5t74 26.5q39 0 73 -21v13q0 61 -25 133h-134v76h102q-39 93 -39 150q0 79 49.5 125.5t132.5 46.5t128.5 -46t45.5 -130v-15h-88q0 116 -85 116q-39 0 -61.5 -22t-22.5 -62q0 -50 43 -163h126v-76h-100q10 -56 10 -92q0 -46 -14 -88q64 -42 100 -42 q66 0 66 91v8h62q-1 -197 -124 -197q-67 0 -134 61q-52 -64 -111 -64q-44 0 -73 29.5t-29 73.5zM66 90q0 -16 12 -27t31 -11q35 0 60 41q4 10 0 16.5t-17.5 10t-25 5t-21.5 1.5q-17 0 -28 -10t-11 -26z" />
<glyph unicode="&#xa8;" horiz-adv-x="500" d="M101 634q0 23 16 39t39 16t39 -16t16 -39t-15.5 -39.5t-39.5 -16.5t-39.5 16.5t-15.5 39.5zM288 634q0 23 16.5 39t39.5 16t38.5 -16t15.5 -39t-15.5 -39.5t-38.5 -16.5t-39.5 16.5t-16.5 39.5z" />
<glyph unicode="&#xa9;" horiz-adv-x="833" d="M57 355q0 147 107 256q106 104 252 104q152 0 256.5 -105t104.5 -255t-104 -252q-110 -108 -257 -108t-253 106.5t-106 253.5zM104 355q0 -128 93 -220t220 -92q129 0 222 93q90 86 90 219q0 130 -90.5 221.5t-221.5 91.5q-127 0 -220 -91t-93 -222zM206 354 q0 98 59.5 159t155.5 61q71 0 116 -43v36h68v-149h-69q-13 40 -44 62t-72 22q-60 0 -98 -40.5t-38 -106.5q0 -70 40.5 -108.5t90.5 -38.5q42 0 80 28t55 77l66 -35q-21 -65 -73.5 -104t-125.5 -39q-94 0 -152.5 61.5t-58.5 157.5z" />
<glyph unicode="&#xab;" horiz-adv-x="440" d="M32 247l128 152h88l-126 -152l126 -153h-88zM194 247l128 152h88l-126 -152l126 -153h-88z" />
<glyph unicode="&#xad;" horiz-adv-x="326" d="M42 206v86h243v-86h-243z" />
<glyph unicode="&#xae;" horiz-adv-x="833" d="M57 355q0 147 107 256q106 104 252 104q152 0 256.5 -105t104.5 -255t-104 -252q-110 -108 -257 -108t-253 106.5t-106 253.5zM104 355q0 -128 93 -220t220 -92q129 0 222 93q90 86 90 219q0 130 -90.5 221.5t-221.5 91.5q-127 0 -220 -91t-93 -222zM257 159v71h47v279 h-47v68h180q64 0 101.5 -28t37.5 -83q0 -81 -74 -107l60 -129h48v-71h-95l-91 192h-44v-121h48v-71h-171zM380 414h36q45 0 62.5 11.5t17.5 35.5q0 23 -14.5 35t-27.5 13.5t-34 1.5h-40v-97z" />
<glyph unicode="&#xb4;" horiz-adv-x="559" d="M180 554l100 170h98l-139 -170h-59z" />
<glyph unicode="&#xbb;" horiz-adv-x="440" d="M30 94l126 153l-126 152h88l128 -152l-128 -153h-88zM192 94l126 153l-126 152h88l128 -152l-128 -153h-88z" />
<glyph unicode="&#x401;" horiz-adv-x="632" d="M20 0v90h82v519h-82v85h567v-206h-84v121h-302v-211h270v-83h-270v-225h302v132h84v-222h-567zM152 797q0 26 17.5 43.5t43.5 17.5t44 -17.5t18 -43.5q0 -27 -17.5 -44.5t-44.5 -17.5q-29 0 -45 19t-16 43zM350 797q0 26 17.5 43.5t43.5 17.5t44 -17.5t18 -43.5 q0 -27 -17.5 -44.5t-44.5 -17.5q-29 0 -45 19t-16 43z" />
<glyph unicode="&#x402;" horiz-adv-x="713" d="M20 475v219h541v-219h-83v134h-138v-231q78 13 132 13q110 0 164 -58q47 -51 47 -144q0 -81 -38 -131q-22 -29 -61 -50t-88 -23v84q39 4 62 23q35 29 35 99q0 65 -38 94q-32 24 -97 24q-50 0 -118 -11v-208h64v-90h-246v90h83v519h-137v-134h-84z" />
<glyph unicode="&#x403;" horiz-adv-x="580" d="M20 0v90h82v519h-82v85h537v-272h-84v187h-272v-519h92v-90h-273zM229 760l102 171h74l-131 -171h-45z" />
<glyph unicode="&#x404;" horiz-adv-x="736" d="M33 360q0 135 69 227q92 119 259 119q83 0 147 -30q55 -26 92 -71v89h89v-223h-98q-24 68 -85 103q-53 32 -133 32q-95 0 -153 -46q-73 -59 -77 -159h307v-89h-308q4 -99 69 -162q66 -64 168 -64q92 0 157 54q59 51 88 133l84 -54q-39 -100 -105 -158q-85 -75 -224 -75 q-137 0 -226 78q-120 105 -120 296z" />
<glyph unicode="&#x405;" horiz-adv-x="549" d="M50 518q0 82 54.5 135t137.5 53q89 0 152 -58v46h81v-199h-82v51q-60 75 -142 75q-43 0 -73.5 -23.5t-30.5 -70.5q0 -31 15.5 -52.5t31 -29.5t40.5 -17l120 -42q151 -52 151 -197q0 -91 -57.5 -147t-155.5 -56q-89 0 -153 58v-44h-88v238h88v-62q22 -44 61.5 -72.5 t90.5 -28.5q56 0 85 32.5t29 76.5q0 84 -90 116l-123 41q-142 48 -142 177z" />
<glyph unicode="&#x406;" horiz-adv-x="303" d="M20 0v90h82v519h-82v85h264v-85h-83v-519h83v-90h-264z" />
<glyph unicode="&#x407;" horiz-adv-x="303" d="M3 840q0 23 16 39t39 16t39 -16t16 -39t-15.5 -39.5t-39.5 -16.5t-39.5 16.5t-15.5 39.5zM20 0v90h82v519h-82v85h264v-85h-83v-519h83v-90h-264zM190 840q0 23 16.5 39t39.5 16t38.5 -16t15.5 -39t-15.5 -39.5t-38.5 -16.5t-39.5 16.5t-16.5 39.5z" />
<glyph unicode="&#x408;" horiz-adv-x="301" d="M-32 -64q2 3 5.5 1t16 -5.5t24.5 -3.5q16 0 29 2.5t22 9.5t16 13t10.5 18.5t6 19.5t3.5 23.5t1.5 23.5t0 25.5t-0.5 23.5v522h-82v85h264v-85h-83v-561q0 -56 -11.5 -96.5t-27 -61.5t-41.5 -33t-44 -15t-46 -4h-21q-27 2 -42 6v92z" />
<glyph unicode="&#x409;" horiz-adv-x="992" d="M11 0v89q15 -3 30 -3q67 0 101 46q29 41 38 133q8 104 8 218v126h-94v85h595v-85h-82v-208h141q97 0 158 -51q64 -53 64 -155q0 -85 -53 -137q-59 -58 -178 -58h-313v90h82v519h-225v-132q0 -105 -6 -188q-10 -146 -51 -209q-56 -86 -165 -86q-17 0 -50 6zM607 90h122 q72 0 104 31q30 30 30 80q0 55 -40 86q-34 26 -93 26h-123v-223z" />
<glyph unicode="&#x40a;" horiz-adv-x="984" d="M20 0v90h82v519h-82v85h266v-85h-85v-208h301v208h-85v85h266v-85h-82v-208h141q97 0 158 -51q64 -53 64 -155q0 -85 -53 -137q-59 -58 -178 -58h-316v90h85v223h-301v-223h85v-90h-266zM601 90h122q72 0 104 31q30 30 30 80q0 55 -40 86q-34 26 -93 26h-123v-223z" />
<glyph unicode="&#x40b;" horiz-adv-x="847" d="M37 465v229h541v-229h-83v144h-138v-231q88 10 166 10q123 0 172 -69q32 -46 32 -131v-98h82v-90h-271v90h82v94q0 74 -34 100q-30 22 -102 22q-61 0 -127 -8v-208h84v-90h-266v90h83v519h-137v-144h-84z" />
<glyph unicode="&#x40c;" horiz-adv-x="604" d="M20 0v90h82v519h-82v85h264v-85h-83v-519h83v-90h-264zM201 369l236 240h-76v85h259v-85h-71l-225 -235l228 -284h82v-90h-272v90h69zM265 760l102 171h74l-131 -171h-45z" />
<glyph unicode="&#x40e;" horiz-adv-x="665" d="M11 609v85h266v-85h-76l157 -314l128 314h-85v85h264v-85h-76l-264 -609h-192v90h139l34 88l-217 431h-78zM149 905l103 16q2 -33 23 -57.5t57 -24.5t57 24.5t23 57.5l103 -16q-4 -58 -46 -94q-43 -36 -137 -36t-137 36q-42 36 -46 94z" />
<glyph unicode="&#x40f;" horiz-adv-x="702" d="M22 0v90h82v519h-82v85h265v-85h-84v-519h296v518h-84v86h265v-86h-82v-518h82v-90h-285v-210h-88v210h-285z" />
<glyph unicode="&#x410;" horiz-adv-x="632" d="M-28 0v90h80l181 519h-90v85h347v-85h-85l179 -519h75v-90h-260v90h84l-54 156h-234l-53 -156h78v-90h-248zM225 330h174l-86 258z" />
<glyph unicode="&#x411;" horiz-adv-x="586" d="M22 0v90h82v519h-82v85h490v-202h-90v117h-220v-214h156q88 0 142 -46q58 -50 58 -148q0 -95 -58 -146q-61 -55 -183 -55h-295zM203 90h120q63 0 98 33q32 30 32 81q0 57 -45 84q-30 19 -88 19h-117v-217z" />
<glyph unicode="&#x412;" horiz-adv-x="598" d="M20 0v90h82v519h-82v85h279q21 0 41 -1.5t54 -11.5t58 -27.5t42.5 -53t18.5 -83.5q0 -108 -104 -148q62 -16 102 -60t40 -113q0 -45 -14 -80.5t-38.5 -55.5t-49 -33.5t-55.5 -18.5t-47.5 -6.5t-34.5 -1.5h-292zM201 87h97q70 0 110 31t40 86q0 40 -20 66t-52 36t-52.5 13 t-40.5 3h-82v-235zM201 403h73q140 0 140 100q0 35 -16 59t-41.5 33t-42.5 11.5t-34 2.5h-79v-206z" />
<glyph unicode="&#x413;" horiz-adv-x="580" d="M20 0v90h82v519h-82v85h537v-272h-84v187h-272v-519h92v-90h-273z" />
<glyph unicode="&#x414;" horiz-adv-x="708" d="M14 90h71q65 95 93 190q27 93 27 238v91h-93v85h574v-85h-82v-519h82v-238h-84v148h-504v-148h-84v238zM183 90h322v519h-214v-84q0 -146 -22 -236q-25 -103 -86 -199z" />
<glyph unicode="&#x415;" horiz-adv-x="635" d="M20 0v90h82v519h-82v85h567v-206h-84v121h-302v-211h270v-83h-270v-225h302v132h84v-222h-567z" />
<glyph unicode="&#x416;" horiz-adv-x="963" d="M24 0v90h82l221 284l-218 235h-71v85h246v-85h-63l211 -240l-205 -279h57v-90h-260zM358 0v90h74v519h-74v85h248v-85h-75v-519h75v-90h-248zM531 369l211 240h-63v85h246v-85h-71l-218 -235l221 -284h82v-90h-260v90h57z" />
<glyph unicode="&#x417;" horiz-adv-x="560" d="M27 153l91 48q13 -52 52 -85q43 -37 111 -37q66 0 101 37q32 34 32 86q0 66 -51 99q-36 23 -96 23h-64v88h63q57 0 94 28q36 28 36 76q0 44 -30 71q-30 26 -82 26q-89 0 -134 -70v-62h-94v213h86v-44q25 24 57 38q43 18 106 18q90 0 142 -45q55 -48 55 -133 q0 -59 -34 -101q-29 -35 -78 -49v-6q44 -9 75 -36q59 -50 59 -138q0 -85 -53 -142q-66 -70 -188 -70q-111 0 -181 55q-56 45 -75 112z" />
<glyph unicode="&#x418;" horiz-adv-x="731" d="M20 0v90h83v519h-82v85h268v-85h-85v-464l315 549h192v-85h-82v-519h82v-90h-266v90h85v465l-321 -555h-189z" />
<glyph unicode="&#x419;" horiz-adv-x="731" d="M20 0v90h83v519h-82v85h268v-85h-85v-464l315 549h192v-85h-82v-519h82v-90h-266v90h85v465l-321 -555h-189zM188 905l103 16q2 -33 23 -57.5t57 -24.5t57 24.5t23 57.5l103 -16q-4 -58 -46 -94q-43 -36 -137 -36t-137 36q-42 36 -46 94z" />
<glyph unicode="&#x41a;" horiz-adv-x="604" d="M20 0v90h82v519h-82v85h264v-85h-83v-519h83v-90h-264zM201 369l236 240h-76v85h259v-85h-71l-225 -235l228 -284h82v-90h-272v90h69z" />
<glyph unicode="&#x41b;" horiz-adv-x="736" d="M11 0v89q15 -3 30 -3q67 0 101 46q29 41 38 133q8 104 8 218v126h-94v85h620v-85h-82v-518h82v-91h-265v90h84v519h-250v-132q0 -105 -6 -188q-10 -146 -51 -209q-56 -86 -165 -86q-17 0 -50 6z" />
<glyph unicode="&#x41c;" horiz-adv-x="910" d="M20 0v90h84v519h-84v85h245l191 -493l196 493h238v-85h-85v-519h85v-90h-272v90h84v520l-248 -610h-20l-242 618v-528h99v-90h-271z" />
<glyph unicode="&#x41d;" horiz-adv-x="704" d="M20 0v90h82v519h-82v85h266v-85h-85v-196h301v196h-85v85h267v-85h-82v-519h82v-90h-267v90h85v240h-301v-240h85v-90h-266z" />
<glyph unicode="&#x41e;" horiz-adv-x="764" d="M34 346q0 154 97 257t251 103q153 0 250 -101t97 -259t-97 -259t-250 -101t-250.5 101t-97.5 259zM141 347q0 -117 67 -192.5t173 -75.5t173.5 76t67.5 192q0 114 -66.5 190t-174.5 76q-105 0 -172.5 -75.5t-67.5 -190.5z" />
<glyph unicode="&#x41f;" horiz-adv-x="704" d="M20 0v90h82v519h-82v85h664v-85h-82v-519h82v-90h-267v90h85v519h-301v-519h86v-90h-267z" />
<glyph unicode="&#x420;" horiz-adv-x="601" d="M20 0v90h82v519h-82v85h279q67 0 116.5 -13t77.5 -33t45 -49.5t22 -56.5t5 -60q0 -56 -17.5 -97t-43.5 -63.5t-64 -35.5t-70 -16.5t-71 -3.5h-98v-176h83v-90h-264zM201 349h83q101 0 138 33t37 97t-37 97t-138 33h-83v-260z" />
<glyph unicode="&#x421;" horiz-adv-x="752" d="M34 346q0 67 21.5 130t62.5 115t109.5 83.5t154.5 31.5q149 0 224 -101v89h85v-223h-92q-19 48 -50.5 80t-66.5 44t-54.5 15.5t-38.5 3.5q-110 0 -179 -73t-69 -194q0 -128 72.5 -198t167.5 -70q85 0 152.5 56t94.5 145l86 -51q-33 -113 -122.5 -178t-209.5 -65 q-153 0 -250.5 101t-97.5 259z" />
<glyph unicode="&#x422;" horiz-adv-x="616" d="M37 425v269h541v-269h-83v184h-138v-519h84v-90h-266v90h83v519h-137v-184h-84z" />
<glyph unicode="&#x423;" horiz-adv-x="665" d="M11 609v85h266v-85h-76l157 -314l128 314h-85v85h264v-85h-76l-264 -609h-192v90h139l34 88l-217 431h-78z" />
<glyph unicode="&#x424;" horiz-adv-x="715" d="M22 360q0 114 76 174q68 54 192 54h18v45h-77v85h253v-85h-77v-45h18q124 0 192 -54q76 -60 76 -174q0 -96 -53 -155q-67 -75 -197 -75h-36v-49h82v-90h-263v90h82v49h-36q-130 0 -197 75q-53 59 -53 155zM125 360q0 -82 58 -121q42 -28 108 -28h17v296h-15 q-82 0 -124 -37q-44 -38 -44 -110zM407 211h17q66 0 108 28q58 39 58 121q0 72 -44 110q-42 37 -124 37h-15v-296z" />
<glyph unicode="&#x425;" horiz-adv-x="600" d="M-14 0v90h80l178 257l-172 262h-86v85h265v-85h-58l111 -172l114 172h-79v85h255v-85h-75l-164 -249l179 -270h83v-90h-278v90h75l-119 181l-120 -181h76v-90h-265z" />
<glyph unicode="&#x426;" horiz-adv-x="712" d="M22 0v90h82v516h-82v88h265v-88h-84v-516h296v516h-84v88h265v-88h-82v-516h92v-225h-84v135h-584z" />
<glyph unicode="&#x427;" horiz-adv-x="667" d="M12 609v85h271v-85h-82v-119q0 -74 34 -100q30 -22 102 -22q61 0 127 8v233h-84v85h265v-85h-82v-519h82v-90h-275v90h94v206q-88 -10 -166 -10q-123 0 -172 69q-32 46 -32 131v123h-82z" />
<glyph unicode="&#x428;" horiz-adv-x="933" d="M23 0v88h82l1 518h-83v88h256v-88h-75v-518h213v518h-65v88h229v-88h-65v-518h213v518h-75v88h256v-88h-82v-518h82v-88h-887z" />
<glyph unicode="&#x429;" horiz-adv-x="947" d="M23 0v88h82l1 521h-83v85h256v-85h-75v-521h213v521h-65v85h229v-85h-65v-521h213v519h-75v87h256v-87h-82v-519h96v-253h-90v165h-811z" />
<glyph unicode="&#x42a;" horiz-adv-x="740" d="M23 428v266h422v-85h-85v-208h141q97 0 158 -51q64 -53 64 -155q0 -85 -53 -137q-59 -58 -178 -58h-313v90h82v519h-154v-181h-84zM360 90h122q72 0 104 31q30 30 30 80q0 55 -40 86q-34 26 -93 26h-123v-223z" />
<glyph unicode="&#x42b;" horiz-adv-x="875" d="M22 0v90h82v519h-82v85h263v-85h-82v-208h131q97 0 158 -51q64 -53 64 -155q0 -85 -53 -137q-59 -58 -178 -58h-303zM203 90h112q72 0 104 31q30 30 30 80q0 55 -40 86q-34 26 -93 26h-113v-223zM590 0v90h82v519h-82v85h263v-85h-82v-519h82v-90h-263z" />
<glyph unicode="&#x42c;" horiz-adv-x="577" d="M22 0v90h82v519h-82v85h263v-85h-82v-208h141q97 0 158 -51q64 -53 64 -155q0 -85 -53 -137q-59 -58 -178 -58h-313zM203 90h122q72 0 104 31q30 30 30 80q0 55 -40 86q-34 26 -93 26h-123v-223z" />
<glyph unicode="&#x42d;" horiz-adv-x="736" d="M33 219l84 54q29 -82 88 -133q65 -54 157 -54q102 0 168 64q65 63 69 162h-308v89h307q-4 100 -77 159q-58 46 -153 46q-80 0 -133 -32q-61 -35 -85 -103h-98v223h89v-89q37 45 92 71q64 30 147 30q167 0 259 -119q69 -92 69 -227q0 -191 -120 -296q-89 -78 -226 -78 q-139 0 -224 75q-66 58 -105 158z" />
<glyph unicode="&#x42e;" horiz-adv-x="965" d="M22 0v90h82v519h-82v85h259v-84h-78v-195h91q6 71 36.5 130.5t77.5 97.5q79 63 208 63q166 0 254 -116q69 -91 69 -237q0 -136 -63 -229q-88 -131 -260 -131q-170 0 -260 130q-61 90 -64 210h-89v-243h82v-90h-263zM400 353q0 -125 56 -194q58 -72 160 -72q120 0 177 99 q39 69 39 167q0 128 -63 199q-56 62 -153 62q-108 0 -167 -82q-49 -68 -49 -179z" />
<glyph unicode="&#x42f;" horiz-adv-x="648" d="M11 0v90h92l148 242q-80 9 -126 61q-39 45 -39 112q0 105 70 154q50 35 140 35h330v-85h-82v-519h82v-90h-266v90h85v235h-82l-194 -325h-158zM191 506q0 -48 32 -74q29 -25 89 -25h133v202h-135q-61 0 -93 -33q-26 -26 -26 -70z" />
<glyph unicode="&#x430;" horiz-adv-x="513" d="M29 141q0 72 48 116t125 44q57 0 139 -35v29q0 128 -103 128q-75 0 -118 -63l-85 22q49 118 213 118q27 0 48.5 -3t47.5 -15t43.5 -31.5t29.5 -56t12 -86.5v-222h74v-86h-159v46q-69 -60 -153 -60q-74 0 -118 43t-44 112zM125 144q0 -26 21 -47t59 -21q63 0 139 60v36 q-71 44 -125 44q-45 0 -69.5 -21.5t-24.5 -50.5z" />
<glyph unicode="&#x431;" horiz-adv-x="558" d="M38 320q0 135 21 208q21 70 70 113q46 39 128 57q95 21 248 42v-91q-128 -15 -226 -37q-68 -15 -103 -47q-64 -59 -60 -188h4q20 46 62 75q55 39 127 39q102 0 166 -71q62 -68 62 -172q0 -120 -71 -195q-63 -67 -169 -67q-143 0 -209 106q-50 81 -50 228zM144 245 q0 -74 40 -123q42 -48 109 -48q71 0 112 51q37 46 37 121q0 89 -58 132q-38 27 -91 27q-62 0 -104 -40q-45 -43 -45 -120z" />
<glyph unicode="&#x432;" horiz-adv-x="502" d="M20 0v86h70v321h-70v81h286q76 0 117 -36q37 -32 37 -87q0 -47 -26 -75q-23 -25 -59 -31v-4q43 -9 64 -26q36 -29 36 -87q0 -82 -60 -118q-39 -24 -104 -24h-291zM178 86h101q52 0 76 24q16 16 16 43q0 36 -31 54q-22 11 -61 11h-101v-132zM178 294h106q38 0 58 14 q21 15 21 41q0 32 -26 48q-17 10 -55 10h-104v-113z" />
<glyph unicode="&#x433;" horiz-adv-x="467" d="M20 0v86h70v321h-70v81h426v-184h-81v103h-187v-321h74v-86h-232z" />
<glyph unicode="&#x434;" horiz-adv-x="558" d="M8 86h60q43 62 63 144q14 62 14 137v40h-71v81h461v-81h-70v-321h71v-219h-81v133h-366v-130h-81v216zM159 86h218v321h-151v-53q0 -76 -15 -144q-16 -68 -52 -124z" />
<glyph unicode="&#x435;" horiz-adv-x="547" d="M32 243q0 116 68 186.5t176 70.5q119 0 182.5 -84t54.5 -198h-383q1 -63 43.5 -102.5t109.5 -39.5q100 0 155 86l77 -40q-35 -66 -96 -101t-137 -35q-113 0 -181.5 70t-68.5 187zM138 290h277q-4 61 -42.5 95t-96.5 34q-59 0 -97 -34.5t-41 -94.5z" />
<glyph unicode="&#x436;" horiz-adv-x="766" d="M17 0v86h70l147 172l-151 149h-54v81h201v-81h-47l153 -151l-208 -256h-111zM270 0v86h69v321h-50v81h188v-81h-50v-321h70v-86h-227zM430 256l153 151h-47v81h201v-81h-54l-151 -149l147 -172h70v-86h-111z" />
<glyph unicode="&#x437;" horiz-adv-x="457" d="M16 93l73 42q17 -37 55 -56q29 -14 82 -14q59 0 87 26q24 21 24 52q0 36 -28 55q-24 16 -69 16h-63v77h63q36 0 57 13q27 18 27 50q0 33 -24 51q-23 18 -65 18q-57 0 -89 -32q-26 -26 -26 -61v-7h-78v165h80v-31q52 43 129 43q72 0 117 -32q51 -37 51 -103q0 -43 -24 -71 q-24 -27 -59 -35v-4q32 -6 57 -26q40 -33 40 -89q0 -90 -81 -130q-48 -24 -127 -24q-86 0 -135 25q-51 26 -74 82z" />
<glyph unicode="&#x438;" horiz-adv-x="576" d="M20 0v86h70v321h-70v81h228v-81h-70v-279l209 360h169v-81h-70v-321h70v-86h-228v86h70v289l-219 -375h-159z" />
<glyph unicode="&#x439;" horiz-adv-x="576" d="M20 0v86h70v321h-70v81h228v-81h-70v-279l209 360h169v-81h-70v-321h70v-86h-228v86h70v289l-219 -375h-159zM145 666l83 14q4 -52 62 -52t62 52l83 -14q-6 -51 -45 -77q-33 -22 -100 -22t-100 22q-39 26 -45 77z" />
<glyph unicode="&#x43a;" horiz-adv-x="544" d="M20 0v86h70v321h-70v81h216v-81h-58v-321h71v-86h-229zM181 255l179 152h-59v81h219v-81h-57l-172 -145l168 -176h70v-86h-111z" />
<glyph unicode="&#x43b;" horiz-adv-x="571" d="M9 -4v81q13 -3 29 -3q42 0 66 26t32 86q6 42 6 124v97h-66v81h474v-81h-70v-321h70v-86h-228v86h70v321h-166v-113q0 -75 -9 -138q-13 -87 -57 -128q-41 -37 -109 -37q-22 0 -42 5z" />
<glyph unicode="&#x43c;" horiz-adv-x="704" d="M22 402v86h210l122 -321l127 321h201v-79h-70v-323h70v-86h-220v86h62v317l-165 -403h-25l-165 403v-317h62v-86h-208v86h69v316h-70z" />
<glyph unicode="&#x43d;" horiz-adv-x="555" d="M20 0v86h70v321h-70v81h226v-81h-68v-123h199v123h-68v81h226v-81h-70v-321h70v-86h-226v86h68v127h-199v-127h70v-86h-228z" />
<glyph unicode="&#x43e;" horiz-adv-x="553" d="M32 243q0 115 68.5 186t175.5 71q108 0 176.5 -70.5t68.5 -186.5t-68.5 -186.5t-176.5 -70.5q-107 0 -175.5 71t-68.5 186zM129 244q0 -86 43.5 -127t103.5 -41q61 0 104 41t43 127q0 79 -39.5 123.5t-107.5 44.5q-61 0 -104 -41t-43 -127z" />
<glyph unicode="&#x43f;" horiz-adv-x="555" d="M20 0v81h70v321h-70v86h515v-86h-70v-321h70v-81h-226v81h68v321h-199v-321h68v-81h-226z" />
<glyph unicode="&#x440;" horiz-adv-x="590" d="M15 -77h70v484h-70v81h156v-73q75 73 166 73q90 0 154.5 -65t64.5 -186t-64.5 -186t-154.5 -65q-93 0 -163 72v-135h93v-85h-252v85zM174 239q0 -74 39 -120t104 -46q60 0 102.5 41t42.5 125q0 77 -39.5 121.5t-105.5 44.5q-65 0 -104 -44t-39 -122z" />
<glyph unicode="&#x441;" horiz-adv-x="535" d="M32 243q0 111 65 184t171 73q82 0 144 -55v43h78v-182h-78q-10 52 -46 80.5t-84 28.5q-63 0 -107 -42t-44 -129q0 -85 44.5 -126.5t105.5 -41.5q48 0 89.5 26t64.5 72l77 -38q-30 -72 -91.5 -111t-139.5 -39q-111 0 -180 70.5t-69 186.5z" />
<glyph unicode="&#x442;" horiz-adv-x="508" d="M25 302v186h458v-186h-81v105h-104v-321h74v-86h-236v86h74v321h-104v-105h-81z" />
<glyph unicode="&#x443;" horiz-adv-x="491" d="M-5 407v81h205v-81h-56l108 -272l105 272h-57v81h195v-81h-57l-219 -569h-166v81h116l37 96l-156 392h-55z" />
<glyph unicode="&#x444;" horiz-adv-x="680" d="M18 233q0 110 42 175q53 85 154 85q45 0 82 -20v153h-78v81h166v-234q37 20 82 20q101 0 154 -85q42 -65 42 -175q0 -122 -58 -189q-51 -58 -131 -58q-47 0 -89 20v-106h84v-88h-256v88h84v106q-42 -20 -89 -20q-80 0 -131 58q-58 67 -58 189zM113 238q0 -68 24 -113 q31 -60 92 -60q37 0 67 21v309q-30 17 -66 17q-50 0 -80 -37q-37 -43 -37 -137zM384 86q30 -21 67 -21q61 0 92 60q24 45 24 113q0 94 -37 137q-30 37 -80 37q-36 0 -66 -17v-309z" />
<glyph unicode="&#x445;" horiz-adv-x="505" d="M2 0v86h67l131 156l-148 165h-40v81h204v-79h-56l95 -106l89 106h-62v79h192v-81h-42l-128 -155l149 -166h43v-86h-204v84h54l-97 108l-91 -108h59v-84h-215z" />
<glyph unicode="&#x446;" horiz-adv-x="573" d="M20 0v86h70v321h-70v81h226v-81h-68v-321h199v321h-68v81h226v-81h-70v-321h86v-201h-81v115h-450z" />
<glyph unicode="&#x447;" horiz-adv-x="552" d="M13 407v81h226v-81h-68v-68q0 -43 21 -62q22 -18 72 -18q49 0 109 12v136h-68v81h226v-81h-70v-321h70v-86h-236v86h78v113q-70 -16 -138 -16q-89 0 -125 40q-27 31 -27 92v92h-70z" />
<glyph unicode="&#x448;" horiz-adv-x="808" d="M22 0v86h70v321h-70v81h218v-81h-60v-321h180v321h-55v81h198v-81h-55v-321h180v321h-60v81h218v-81h-70v-321h70v-86h-764z" />
<glyph unicode="&#x449;" horiz-adv-x="822" d="M22 0v86h70v321h-70v81h218v-81h-60v-321h180v321h-55v81h198v-81h-55v-321h180v321h-60v81h218v-81h-70v-321h84v-211h-81v125h-697z" />
<glyph unicode="&#x44a;" horiz-adv-x="576" d="M17 295v193h342v-81h-70v-122h120q71 0 111 -37q39 -35 39 -104q0 -65 -36 -101q-42 -43 -135 -43h-265v86h74v321h-99v-112h-81zM289 86h93q39 0 60 16q22 16 22 46q0 29 -23 45q-17 12 -53 12h-99v-119z" />
<glyph unicode="&#x44b;" horiz-adv-x="726" d="M22 0v86h70v321h-70v81h232v-81h-70v-122h112q71 0 111 -37q39 -35 39 -104q0 -65 -36 -101q-42 -43 -135 -43h-253zM184 86h85q37 0 60 16q22 15 22 45t-23 46q-17 12 -53 12h-91v-119zM476 0v86h70v321h-70v81h228v-81h-70v-321h70v-86h-228z" />
<glyph unicode="&#x44c;" horiz-adv-x="466" d="M21 0v86h70v321h-70v81h232v-81h-70v-122h120q71 0 111 -37q39 -35 39 -104q0 -65 -36 -101q-42 -43 -135 -43h-261zM183 86h93q39 0 60 16q22 16 22 46q0 29 -23 45q-17 12 -53 12h-99v-119z" />
<glyph unicode="&#x44d;" horiz-adv-x="512" d="M21 138l76 38q18 -51 58 -76q38 -25 92 -25q70 0 110 43q38 40 38 101h-193v78h192q-5 62 -59 96q-31 20 -79 20q-59 0 -97 -30q-37 -29 -43 -75h-78v180h80v-44q21 23 49 36q43 20 95 20q106 0 171 -69q60 -63 60 -181q0 -146 -88 -217q-60 -47 -150 -47q-91 0 -152 41 t-82 111z" />
<glyph unicode="&#x44e;" horiz-adv-x="764" d="M22 0v86h70v321h-70v81h222v-81h-64v-113h80q12 107 90 163q59 43 152 43q117 0 184 -73q59 -66 59 -182q0 -96 -39 -157q-65 -102 -204 -102q-118 0 -188 82q-53 63 -56 146h-78v-128h64v-86h-222zM356 246q0 -84 45 -130q40 -41 101 -41q80 0 118 61q28 44 28 110 q0 88 -45 133q-36 38 -101 38q-72 0 -113 -52q-33 -44 -33 -119z" />
<glyph unicode="&#x44f;" horiz-adv-x="521" d="M8 0v86h77l79 115q-46 10 -77 45q-30 35 -30 91q0 74 50 115q44 36 133 36h261v-81h-70v-321h70v-86h-226v86h68v103h-82l-128 -189h-125zM152 329q0 -23 15 -42q23 -27 75 -27h101v147h-98q-47 0 -70 -21q-23 -20 -23 -57z" />
<glyph unicode="&#x451;" horiz-adv-x="547" d="M32 243q0 116 68 186.5t176 70.5q119 0 182.5 -84t54.5 -198h-383q1 -63 43.5 -102.5t109.5 -39.5q100 0 155 86l77 -40q-35 -66 -96 -101t-137 -35q-113 0 -181.5 70t-68.5 187zM127 637q0 24 16.5 40.5t40.5 16.5t41 -16.5t17 -40.5q0 -22 -15.5 -40t-42.5 -18 q-28 0 -42.5 18t-14.5 40zM138 290h277q-4 61 -42.5 95t-96.5 34q-59 0 -97 -34.5t-41 -94.5zM303 637q0 24 16.5 40.5t40.5 16.5t41 -16.5t17 -40.5q0 -22 -15.5 -40t-42.5 -18q-28 0 -42.5 18t-14.5 40z" />
<glyph unicode="&#x452;" horiz-adv-x="537" d="M0 505v57h117v51h-70v81h158v-132h207v-57h-207v-119q80 72 164 72q29 0 50 -7t33.5 -22.5t20 -29t10.5 -37.5t3.5 -36.5t0.5 -37.5v-10v-294q0 -69 -25 -105q-44 -61 -140 -52v80q25 -3 42 4.5t24 22.5t9 27.5t2 28.5v269v17.5v19t-0.5 17.5t-2.5 18t-4.5 15.5t-7.5 14 t-11 10t-15.5 7.5t-20.5 2q-34 0 -70.5 -23t-61.5 -52v-219h71v-86h-229v86h70v419h-117z" />
<glyph unicode="&#x453;" horiz-adv-x="467" d="M20 0v86h70v321h-70v81h426v-184h-81v103h-187v-321h74v-86h-232zM134 554l100 170h98l-139 -170h-59z" />
<glyph unicode="&#x454;" horiz-adv-x="512" d="M21 250q0 118 60 181q65 69 171 69q52 0 95 -20q28 -13 49 -36v44h80v-180h-78q-6 46 -43 75q-37 30 -97 30q-48 0 -79 -20q-54 -34 -59 -96h192v-78h-193q0 -61 38 -101q40 -43 110 -43q54 0 92 25q40 25 58 76l76 -38q-21 -70 -82 -111t-152 -41q-90 0 -150 47 q-88 71 -88 217z" />
<glyph unicode="&#x455;" horiz-adv-x="466" d="M39 349q0 68 49 109.5t122 41.5q75 0 129 -49v37h75v-159h-75q-5 46 -38.5 71.5t-84.5 25.5q-43 0 -64.5 -18.5t-21.5 -44.5q0 -27 20.5 -41t58.5 -22l83 -17q138 -27 138 -139q0 -71 -49 -114.5t-130 -43.5q-80 0 -132 47v-33h-78v165h78q6 -48 39.5 -75t85.5 -27 q48 0 72.5 20t24.5 47q0 29 -24.5 43.5t-64.5 23.5l-75 17q-138 30 -138 135z" />
<glyph unicode="&#x456;" horiz-adv-x="262" d="M19 0v86h69v321h-69v81h157v-402h72v-86h-229zM68 637q0 24 16.5 40.5t40.5 16.5t41 -16.5t17 -40.5q0 -22 -15.5 -40t-42.5 -18q-28 0 -42.5 18t-14.5 40z" />
<glyph unicode="&#x457;" horiz-adv-x="304" d="M10 637q0 24 16.5 40.5t40.5 16.5t41 -16.5t17 -40.5q0 -22 -15.5 -40t-42.5 -18q-28 0 -42.5 18t-14.5 40zM63 0v86h69v321h-69v81h157v-402h72v-86h-229zM180 637q0 24 16.5 40.5t40.5 16.5t41 -16.5t17 -40.5q0 -22 -15.5 -40t-42.5 -18q-28 0 -42.5 18t-14.5 40z" />
<glyph unicode="&#x458;" horiz-adv-x="248" d="M-24 -91l6 -1l24 -1q49 -2 63.5 20t14.5 63v417h-69v81h157v-504q0 -69 -25 -105q-41 -53 -115 -53q-33 0 -56 5v78zM64 637q0 24 16.5 40.5t41.5 16.5q24 0 40.5 -16.5t16.5 -40.5q0 -25 -16.5 -41.5t-40.5 -16.5q-25 0 -41.5 16.5t-16.5 41.5z" />
<glyph unicode="&#x459;" horiz-adv-x="775" d="M9 -4v81q13 -3 29 -3q42 0 66 26t32 86q6 42 6 124v97h-66v81h478v-81h-70v-122h120q71 0 111 -37q39 -35 39 -104q0 -65 -36 -101q-42 -43 -135 -43h-261v86h70v321h-166v-113q0 -75 -9 -138q-13 -87 -57 -128q-41 -37 -109 -37q-22 0 -42 5zM484 86h93q39 0 60 16 q22 16 22 46q0 29 -23 45q-17 12 -53 12h-99v-119z" />
<glyph unicode="&#x45a;" horiz-adv-x="757" d="M20 0v86h70v321h-70v81h226v-81h-68v-123h199v123h-68v81h228v-81h-70v-122h120q71 0 111 -37q39 -35 39 -104q0 -65 -36 -101q-42 -43 -135 -43h-259v86h68v127h-197v-127h70v-86h-228zM467 86h93q39 0 60 16q22 16 22 46q0 29 -23 45q-17 12 -53 12h-99v-119z" />
<glyph unicode="&#x45b;" horiz-adv-x="586" d="M16 505v57h117v51h-70v81h158v-132h207v-57h-207v-119q80 72 164 72q32 0 55 -10.5t35 -25t18.5 -40t8 -46t1.5 -52.5v-198h72v-86h-160v248q0 6 0.5 24t0 26.5t-1.5 24t-5.5 23.5t-11 17t-18 13t-26.5 4q-34 0 -70.5 -23t-61.5 -52v-219h71v-86h-229v86h70v419h-117z " />
<glyph unicode="&#x45c;" horiz-adv-x="544" d="M20 0v86h70v321h-70v81h216v-81h-58v-321h71v-86h-229zM173 554l100 170h98l-139 -170h-59zM181 255l179 152h-59v81h219v-81h-57l-172 -145l168 -176h70v-86h-111z" />
<glyph unicode="&#x45e;" horiz-adv-x="491" d="M-5 407v81h205v-81h-56l108 -272l105 272h-57v81h195v-81h-57l-219 -569h-166v81h116l37 96l-156 392h-55zM109 666l83 14q4 -52 62 -52t62 52l83 -14q-6 -51 -45 -77q-33 -22 -100 -22t-100 22q-39 26 -45 77z" />
<glyph unicode="&#x45f;" horiz-adv-x="557" d="M20 0v86h70v321h-70v81h226v-81h-68v-321h199v321h-68v81h226v-81h-70v-321h70v-86h-217v-152h-81v152h-217z" />
<glyph unicode="&#x490;" horiz-adv-x="580" d="M20 0v90h82v519h-82v85h453v155h84v-240h-356v-519h92v-90h-273z" />
<glyph unicode="&#x491;" horiz-adv-x="467" d="M20 0v86h70v321h-70v81h345v103h81v-184h-268v-321h74v-86h-232z" />
<glyph unicode="&#x2000;" horiz-adv-x="465" />
<glyph unicode="&#x2001;" horiz-adv-x="931" />
<glyph unicode="&#x2002;" horiz-adv-x="465" />
<glyph unicode="&#x2003;" horiz-adv-x="931" />
<glyph unicode="&#x2004;" horiz-adv-x="310" />
<glyph unicode="&#x2005;" horiz-adv-x="232" />
<glyph unicode="&#x2006;" horiz-adv-x="155" />
<glyph unicode="&#x2007;" horiz-adv-x="155" />
<glyph unicode="&#x2008;" horiz-adv-x="116" />
<glyph unicode="&#x2009;" horiz-adv-x="186" />
<glyph unicode="&#x200a;" horiz-adv-x="51" />
<glyph unicode="&#x2010;" horiz-adv-x="326" d="M42 206v86h243v-86h-243z" />
<glyph unicode="&#x2011;" horiz-adv-x="326" d="M42 206v86h243v-86h-243z" />
<glyph unicode="&#x2012;" horiz-adv-x="326" d="M42 206v86h243v-86h-243z" />
<glyph unicode="&#x2013;" horiz-adv-x="500" d="M0 213v72h500v-72h-500z" />
<glyph unicode="&#x2014;" horiz-adv-x="1000" d="M0 213v72h1000v-72h-1000z" />
<glyph unicode="&#x2018;" horiz-adv-x="248" d="M64 444v123q0 132 115 139v-56q-31 -7 -42.5 -21t-11.5 -46v-16h52v-123h-113z" />
<glyph unicode="&#x2019;" horiz-adv-x="248" d="M70 432v56q31 7 42.5 21.5t11.5 46.5v16h-52v122h112v-122q0 -133 -114 -140z" />
<glyph unicode="&#x201c;" horiz-adv-x="437" d="M68 444v123q0 132 114 139v-56q-31 -7 -42.5 -21t-11.5 -46v-16h52v-123h-112zM251 444v123q0 132 114 139v-56q-31 -7 -42.5 -21t-11.5 -46v-16h52v-123h-112z" />
<glyph unicode="&#x201d;" horiz-adv-x="437" d="M73 432v56q31 7 43 22t12 47v15h-52v122h112v-122q0 -133 -115 -140zM256 432v56q31 7 43 22t12 47v15h-52v122h112v-122q0 -133 -115 -140z" />
<glyph unicode="&#x201e;" horiz-adv-x="437" d="M64 -84q31 7 42.5 21.5t11.5 46.5v16h-52v123h112v-123q0 -132 -114 -139v55zM247 -84q31 7 42.5 21.5t11.5 46.5v16h-52v123h112v-123q0 -132 -114 -139v55z" />
<glyph unicode="&#x2026;" horiz-adv-x="1000" d="M-2 0v123h116v-123h-116zM331 0v123h116v-123h-116zM665 0v123h116v-123h-116z" />
<glyph unicode="&#x202f;" horiz-adv-x="186" />
<glyph unicode="&#x205f;" horiz-adv-x="232" />
<glyph unicode="&#x20ac;" horiz-adv-x="793" d="M26 249l20 56h52q-4 40 -1 72h-71l20 56h60q26 131 122 202t225 71q135 0 215 -99v87h85v-203h-94q-29 60 -84 91.5t-124 31.5q-89 0 -153.5 -49.5t-83.5 -131.5h417l-20 -56h-407q-3 -33 1 -72h386l-20 -56h-354q23 -81 88 -125.5t138 -44.5t130.5 39.5t91.5 100.5 l86 -51q-40 -83 -120 -132.5t-186 -49.5q-125 0 -218 70.5t-120 192.5h-81z" />
<glyph unicode="&#x2122;" horiz-adv-x="833" d="M118 673v39h221v-39h-84v-224h-53v224h-84zM397 449v263h73l74 -188l69 188h73v-263h-48v217l-81 -217h-27l-85 217v-217h-48z" />
</font>
</defs>
</svg>
